<?xml version="1.0" standalone="no"?>
<!DOCTYPE svg PUBLIC "-//W3C//DTD SVG 20010904//EN"
 "http://www.w3.org/TR/2001/REC-SVG-20010904/DTD/svg10.dtd">
<svg version="1.0" xmlns="http://www.w3.org/2000/svg"
 width="50px" height="50px" viewBox="0 0 200.000000 200.000000"
 preserveAspectRatio="xMidYMid meet">

<g transform="translate(0.000000,200.000000) scale(0.100000,-0.100000)"
fill="#000000" stroke="none">
<path d="M369 1281 c-23 -23 -29 -38 -29 -71 0 -37 -3 -42 -30 -51 -39 -14
-41 -46 -2 -51 l27 -3 3 -148 3 -148 37 3 37 3 2 135 c1 74 2 141 3 148 0 7
15 12 40 12 38 0 40 2 40 30 0 28 -2 30 -40 30 -37 0 -40 2 -40 29 0 39 22 55
64 47 30 -6 34 -4 40 19 10 39 1 45 -65 45 -54 0 -64 -3 -90 -29z"/>
<path d="M780 1225 l0 -86 -30 16 c-42 22 -116 19 -150 -5 -42 -30 -60 -78
-60 -159 0 -123 42 -181 131 -181 48 0 99 16 99 32 0 16 18 7 23 -12 4 -15 14
-20 36 -20 l31 0 0 250 0 250 -40 0 -40 0 0 -85z m-25 -140 c22 -21 25 -33 25
-95 0 -62 -3 -74 -25 -95 -15 -16 -36 -25 -55 -25 -19 0 -40 9 -55 25 -21 20
-25 34 -25 85 0 88 26 129 83 130 17 0 38 -10 52 -25z"/>
<path d="M1600 1225 l0 -86 -32 17 c-22 11 -48 15 -84 12 -89 -8 -124 -57
-124 -178 0 -84 17 -129 58 -159 40 -28 119 -29 155 -1 14 11 27 20 30 20 3 0
7 -9 10 -20 4 -15 14 -20 36 -20 l31 0 0 250 0 250 -40 0 -40 0 0 -85z m-25
-140 c22 -21 25 -33 25 -95 0 -62 -3 -74 -25 -95 -15 -16 -36 -25 -55 -25 -19
0 -40 9 -55 25 -22 21 -25 33 -25 92 0 59 3 72 25 96 33 35 77 36 110 2z"/>
<path d="M964 1157 c-2 -7 -3 -87 -2 -177 l3 -165 37 -3 36 -3 4 126 c3 125 3
127 31 151 38 32 80 31 106 -2 19 -24 21 -40 21 -150 l0 -124 40 0 40 0 0 123
c0 141 -10 188 -47 217 -36 28 -130 28 -166 0 -14 -11 -27 -20 -30 -20 -3 0
-7 9 -10 20 -6 23 -54 28 -63 7z"/>
</g>
</svg>
